<?xml version="1.0" encoding="utf-8"?>
<svg version="1.1" xmlns:xlink="http://www.w3.org/1999/xlink" width="10px" height="10px" xmlns="http://www.w3.org/2000/svg">
  <g transform="matrix(1 0 0 1 -627 -980 )">
    <path d="M 632 980  C 634.8 980  637 982.2  637 985  C 637 987.8  634.8 990  632 990  C 629.2 990  627 987.8  627 985  C 627 982.2  629.2 980  632 980  Z " fill-rule="nonzero" fill="#ffffff" stroke="none" fill-opacity="0" />
    <path d="M 632 980.5  C 634.52 980.5  636.5 982.48  636.5 985  C 636.5 987.52  634.52 989.5  632 989.5  C 629.48 989.5  627.5 987.52  627.5 985  C 627.5 982.48  629.48 980.5  632 980.5  Z " stroke-width="1" stroke="#999999" fill="none" />
  </g>
</svg>