<?xml version="1.0" encoding="utf-8"?>
<svg version="1.1" xmlns:xlink="http://www.w3.org/1999/xlink" width="15px" height="13px" xmlns="http://www.w3.org/2000/svg">
  <g transform="matrix(1 0 0 1 -756 -103 )">
    <path d="M 14.6464646464646 9.71717171717172  C 14.8821548821549 9.92143658810325  15 10.1694725028058  15 10.4612794612795  C 15 10.7530864197531  14.8821548821549 11.0011223344557  14.6464646464646 11.2053872053872  L 12.9292929292929 12.6936026936027  C 12.6936026936027 12.8978675645342  12.4074074074074 13  12.0707070707071 13  C 11.7340067340067 13  11.4478114478114 12.8978675645342  11.2121212121212 12.6936026936027  L 7.5 9.47643097643098  L 3.78787878787879 12.6936026936027  C 3.55218855218855 12.8978675645342  3.26599326599327 13  2.92929292929293 13  C 2.59259259259259 13  2.30639730639731 12.8978675645342  2.07070707070707 12.6936026936027  L 0.353535353535354 11.2053872053872  C 0.117845117845118 11.0011223344557  0 10.7530864197531  0 10.4612794612795  C 0 10.1694725028058  0.117845117845118 9.92143658810325  0.353535353535354 9.71717171717172  L 4.06565656565657 6.5  L 0.353535353535354 3.28282828282828  C 0.117845117845118 3.07856341189674  0 2.83052749719416  0 2.53872053872054  C 0 2.24691358024691  0.117845117845118 1.99887766554433  0.353535353535354 1.79461279461279  L 2.07070707070707 0.306397306397306  C 2.30639730639731 0.102132435465768  2.59259259259259 0  2.92929292929293 0  C 3.26599326599327 0  3.55218855218855 0.102132435465768  3.78787878787879 0.306397306397306  L 7.5 3.52356902356902  L 11.2121212121212 0.306397306397306  C 11.4478114478114 0.102132435465768  11.7340067340067 0  12.0707070707071 0  C 12.4074074074074 0  12.6936026936027 0.102132435465768  12.9292929292929 0.306397306397306  L 14.6464646464646 1.79461279461279  C 14.8821548821549 1.99887766554433  15 2.24691358024691  15 2.53872053872054  C 15 2.83052749719416  14.8821548821549 3.07856341189674  14.6464646464646 3.28282828282828  L 10.9343434343434 6.5  L 14.6464646464646 9.71717171717172  Z " fill-rule="nonzero" fill="#333333" stroke="none" transform="matrix(1 0 0 1 756 103 )" />
  </g>
</svg>