<?xml version="1.0" encoding="utf-8"?>
<svg version="1.1" xmlns:xlink="http://www.w3.org/1999/xlink" width="10px" height="4px" xmlns="http://www.w3.org/2000/svg">
  <g transform="matrix(1 0 0 1 -597 -173 )">
    <path d="M 9.814453125 0.131944444444445  C 9.93815104166667 0.219907407407407  10 0.324074074074073  10 0.444444444444445  C 10 0.564814814814814  9.93815104166667 0.668981481481481  9.814453125 0.756944444444445  L 5.439453125 3.86805555555556  C 5.31575520833333 3.95601851851852  5.16927083333333 4  5 4  C 4.83072916666667 4  4.68424479166667 3.95601851851852  4.560546875 3.86805555555556  L 0.185546875 0.756944444444445  C 0.0618489583333333 0.668981481481481  0 0.564814814814814  0 0.444444444444445  C 0 0.324074074074073  0.0618489583333333 0.219907407407407  0.185546875 0.131944444444445  C 0.309244791666667 0.043981481481481  0.455729166666667 0  0.625 0  L 9.375 0  C 9.54427083333333 0  9.69075520833333 0.043981481481481  9.814453125 0.131944444444445  Z " fill-rule="nonzero" fill="#169bd5" stroke="none" transform="matrix(1 0 0 1 597 173 )" />
  </g>
</svg>