<?xml version="1.0" encoding="utf-8"?>
<svg version="1.1" xmlns:xlink="http://www.w3.org/1999/xlink" width="14px" height="4px" xmlns="http://www.w3.org/2000/svg">
  <g transform="matrix(1 0 0 1 -802 -168 )">
    <path d="M 13.740234375 3.24305555555556  C 13.9134114583333 3.33101851851852  14 3.43518518518518  14 3.55555555555556  C 14 3.67592592592593  13.9134114583333 3.78009259259259  13.740234375 3.86805555555556  C 13.5670572916667 3.95601851851852  13.3619791666667 4  13.125 4  L 0.875 4  C 0.638020833333333 4  0.432942708333333 3.95601851851852  0.259765625 3.86805555555556  C 0.0865885416666667 3.78009259259259  0 3.67592592592593  0 3.55555555555556  C 0 3.43518518518518  0.0865885416666667 3.33101851851852  0.259765625 3.24305555555556  L 6.384765625 0.131944444444445  C 6.55794270833333 0.043981481481481  6.76302083333333 0  7 0  C 7.23697916666667 0  7.44205729166667 0.043981481481481  7.615234375 0.131944444444445  L 13.740234375 3.24305555555556  Z " fill-rule="nonzero" fill="#d7d7d7" stroke="none" transform="matrix(1 0 0 1 802 168 )" />
  </g>
</svg>