<?xml version="1.0" encoding="utf-8"?>
<svg version="1.1" xmlns:xlink="http://www.w3.org/1999/xlink" width="14px" height="4px" xmlns="http://www.w3.org/2000/svg">
  <g transform="matrix(1 0 0 1 -802 -173 )">
    <path d="M 13.740234375 0.131944444444445  C 13.9134114583333 0.219907407407407  14 0.324074074074073  14 0.444444444444445  C 14 0.564814814814814  13.9134114583333 0.668981481481481  13.740234375 0.756944444444445  L 7.615234375 3.86805555555556  C 7.44205729166667 3.95601851851852  7.23697916666667 4  7 4  C 6.76302083333333 4  6.55794270833333 3.95601851851852  6.384765625 3.86805555555556  L 0.259765625 0.756944444444445  C 0.0865885416666667 0.668981481481481  0 0.564814814814814  0 0.444444444444445  C 0 0.324074074074073  0.0865885416666667 0.219907407407407  0.259765625 0.131944444444445  C 0.432942708333333 0.043981481481481  0.638020833333333 0  0.875 0  L 13.125 0  C 13.3619791666667 0  13.5670572916667 0.043981481481481  13.740234375 0.131944444444445  Z " fill-rule="nonzero" fill="#169bd5" stroke="none" transform="matrix(1 0 0 1 802 173 )" />
  </g>
</svg>