<?xml version="1.0" encoding="utf-8"?>
<svg version="1.1" xmlns:xlink="http://www.w3.org/1999/xlink" width="50px" height="43px" xmlns="http://www.w3.org/2000/svg">
  <g transform="matrix(1 0 0 1 -20 -19 )">
    <path d="M 46 3.57867360208063  L 46 14.3146944083225  C 47.4144345238095 14.3146944083225  48.2561383928571 14.6641742522757  48.9536830357143 15.3631339401821  C 49.6512276785714 16.0620936280884  50 16.9055049848288  50 17.8933680104031  C 50 18.8812310359775  49.6512276785714 19.7246423927178  48.9536830357143 20.4236020806242  C 48.2561383928571 21.1225617685306  47.4144345238095 21.4720416124837  46 21.4720416124837  L 46 32.2080624187256  C 46.4285714285714 33.1772865192891  46.0751488095238 34.0160381447768  45.3683035714286 34.7243172951886  C 44.6614583333333 35.4325964456003  43.8244047619048 35.7867360208062  42.8571428571429 35.7867360208062  C 35.1004464285714 29.3190290420459  27.5483630952381 25.777633289987  20.2008928571429 25.1625487646294  C 19.1220238095238 25.5166883398353  18.2756696428571 26.1317728651929  17.6618303571429 27.0078023407022  C 17.0479910714286 27.8838318162115  16.7596726190476 28.8204377980061  16.796875 29.8176202860858  C 16.8340773809524 30.8148027741656  17.2061011904762 31.6768530559168  17.9129464285714 32.4037711313394  C 17.5409226190476 33.018855656697  17.3270089285714 33.6292804508019  17.2712053571429 34.2350455136541  C 17.2154017857143 34.8408105765063  17.2712053571429 35.3813394018205  17.4386160714286 35.8566319895969  C 17.6060267857143 36.3319245773732  17.9175967261905 36.8444950151712  18.3733258928571 37.3943433029909  C 18.8290550595238 37.9441915908106  19.2754836309524 38.4101647160815  19.7126116071429 38.7922626788036  C 20.1497395833333 39.1743606415258  20.7217261904762 39.6449934980494  21.4285714285714 40.2041612483745  C 20.8891369047619 41.285218899003  19.8521205357143 42.0587342869527  18.3175223214286 42.5247074122237  C 16.7829241071429 42.9906805374946  15.2157738095238 43.0978543563069  13.6160714285714 42.8462288686606  C 12.016369047619 42.5946033810143  10.7886904761905 42.0773732119636  9.93303571428571 41.2945383615085  C 9.80282738095238 40.8658430862592  9.52845982142857 40.0503901170351  9.10993303571429 38.8481794538362  C 8.69140625 37.6459687906372  8.39378720238095 36.7652795838752  8.21707589285714 36.2061118335501  C 8.04036458333333 35.646944083225  7.82645089285714 34.8175119202427  7.57533482142857 33.7178153446034  C 7.32421875 32.618118768964  7.18470982142857 31.6768530559168  7.15680803571429 30.8940182054616  C 7.12890625 30.1111833550065  7.16145833333333 29.1932162982228  7.25446428571429 28.1401170351105  C 7.34747023809524 27.0870177719983  7.55208333333333 26.0572171651495  7.86830357142857 25.0507152145644  L 4.46428571428571 25.0507152145644  C 3.23660714285714 25.0507152145644  2.18563988095238 24.6127004768097  1.31138392857143 23.7366710013004  C 0.437127976190476 22.8606415257911  0 21.8075422626788  0 20.5773732119636  L 0 15.2093628088427  C 0 13.9791937581274  0.437127976190476 12.9260944950152  1.31138392857143 12.0500650195058  C 2.18563988095238 11.1740355439965  3.23660714285714 10.7360208062419  4.46428571428571 11  L 17.8571428571429 11  C 25.9486607142857 10.7360208062419  34.2819940476191 7.15734720416125  42.8571428571429 0  C 43.8244047619048 0  44.6614583333333 0.354139575205891  45.3683035714286 1.06241872561769  C 46.0751488095238 1.77069787602947  46.4285714285714 2.60944950151712  46 3.57867360208063  Z M 21.4285714285714 21.6677503250975  C 28.4412202380952 22.4505851755527  35.5840773809524 25.6285218899003  42 31.2015604681404  L 42 4.52925877763329  C 35.5282738095238 10.1582141309059  28.3854166666667 13.3547897702644  21.4285714285714 14.1189856957087  L 21.4285714285714 21.6677503250975  Z " fill-rule="nonzero" fill="#000000" stroke="none" transform="matrix(1 0 0 1 20 19 )" />
  </g>
</svg>