<?xml version="1.0" encoding="utf-8"?>
<svg version="1.1" xmlns:xlink="http://www.w3.org/1999/xlink" width="89px" height="24px" xmlns="http://www.w3.org/2000/svg">
  <defs>
    <mask fill="white" id="clip484">
      <path d="M 0 24  L 0 0  L 37.5245901639345 0  L 40 0  L 89 0  L 89 24  L 0 24  Z " fill-rule="evenodd" />
    </mask>
  </defs>
  <g transform="matrix(1 0 0 1 -551 -294 )">
    <path d="M 0 24  L 0 0  L 37.5245901639345 0  L 40 0  L 89 0  L 89 24  L 0 24  Z " fill-rule="nonzero" fill="#333333" stroke="none" transform="matrix(1 0 0 1 551 294 )" />
    <path d="M 0 24  L 0 0  L 37.5245901639345 0  L 40 0  L 89 0  L 89 24  L 0 24  Z " stroke-width="2" stroke="#797979" fill="none" transform="matrix(1 0 0 1 551 294 )" mask="url(#clip484)" />
  </g>
</svg>