<?xml version="1.0" encoding="utf-8"?>
<svg version="1.1" xmlns:xlink="http://www.w3.org/1999/xlink" width="150px" height="150px" xmlns="http://www.w3.org/2000/svg">
  <g transform="matrix(1 0 0 1 -50 -3964 )">
    <path d="M 21.7935265486726 96.1028628318584  C 13.9454084070796 76.3311769911505  17.807410619469 54.5450707964602  30.6416163716814 38.8622522123894  L 30.5174814690265 47.6275407079646  L 48.1654633274336 47.9999524778761  L 48.8344239026549 9.11157637168142  L 9.95310974336283 8.44951884955753  L 9.58760102654867 26.0975007079646  L 18.173692619469 26.2147413849558  C 0.402303238938049 46.8497502345133  -5.12896667256637 76.125051119469  5.38079925663717 102.619710411504  C 16.8840045663717 131.626657314159  44.6558169557522 149.874728110619  74.8067992566372 149.874728110619  C 79.8963443893805 149.874728110619  85.0549200530973 149.350590411504  90.2134957168141 148.281658818584  L 86.6066063362832 130.999132712389  C 59.3316019115044 136.681881384956  32.0689558938053 122.013158376106  21.7938231504425 96.1025220929204  Z M 144.611376106195 47.3718982300885  C 131.163310619469 13.4833805309735  95.4884734513274 -5.71628761061947  59.7920973451328 1.71817699115044  L 63.3921013274336 19.0007030973451  C 90.6671057522124 13.3179544247788  117.929751769912 27.9866774336283  128.204884513274 53.8831898230088  C 136.059888053097 73.6689995575221  132.191000442478 95.4762915929203  119.343023893805 111.157344690265  L 119.453366814159 102.316140265487  L 101.798499557522 101.985111504425  L 101.198516548673 140.866425663717  L 140.079830707965 141.466408672566  L 140.410859469027 123.818426814159  L 131.88691300885 123.708083893805  C 149.610634247788 103.087198938053  155.120718318584 73.8472077876106  144.610775840708 47.3719688495575  Z " fill-rule="nonzero" fill="#d7d7d7" stroke="none" transform="matrix(1 0 0 1 50 3964 )" />
  </g>
</svg>