<?xml version="1.0" encoding="utf-8"?>
<svg version="1.1" xmlns:xlink="http://www.w3.org/1999/xlink" width="204px" height="91px" xmlns="http://www.w3.org/2000/svg">
  <g transform="matrix(1 0 0 1 -156 -278 )">
    <path d="M 156.725961538462 360.536861168078  C 156.725961538462 360.536861168078  156.725961538462 324.072463768116  156.725961538462 324.072463768116  C 156.725961538462 319.930328144385  160.083825914731 316.572463768116  164.225961538462 316.572463768116  C 164.225961538462 316.572463768116  245.541223540964 316.572463768116  245.541223540964 316.572463768116  C 245.541223540964 316.572463768116  285.629026842843 279.334921990612  285.629026842843 279.334921990612  C 285.629026842843 279.334921990612  289.026298309104 316.572463768116  289.026298309104 316.572463768116  C 289.026298309104 316.572463768116  352 316.572463768116  352 316.572463768116  C 356.142135623731 316.572463768116  359.5 319.930328144385  359.5 324.072463768116  C 359.5 324.072463768116  359.5 360.536861168078  359.5 360.536861168078  C 359.5 364.678996791809  356.142135623731 368.036861168078  352 368.036861168078  C 352 368.036861168078  164.225961538462 368.036861168078  164.225961538462 368.036861168078  C 160.083825914731 368.036861168078  156.725961538462 364.678996791809  156.725961538462 360.536861168078  Z " fill-rule="nonzero" fill="#ffffff" stroke="none" />
    <path d="M 156.225961538462 360.536861168078  C 156.225961538462 360.536861168078  156.225961538462 324.072463768116  156.225961538462 324.072463768116  C 156.225961538462 319.65418576947  159.807683539815 316.072463768116  164.225961538462 316.072463768116  C 164.225961538462 316.072463768116  245.344827586206 316.072463768116  245.344827586206 316.072463768116  C 245.344827586206 316.072463768116  286.03448275862 278.275862068965  286.03448275862 278.275862068965  C 286.03448275862 278.275862068965  289.482758620689 316.072463768116  289.482758620689 316.072463768116  C 289.482758620689 316.072463768116  352 316.072463768116  352 316.072463768116  C 356.418277998646 316.072463768116  360 319.65418576947  360 324.072463768116  C 360 324.072463768116  360 360.536861168078  360 360.536861168078  C 360 364.955139166724  356.418277998646 368.536861168078  352 368.536861168078  C 352 368.536861168078  164.225961538462 368.536861168078  164.225961538462 368.536861168078  C 159.807683539815 368.536861168078  156.225961538462 364.955139166724  156.225961538462 360.536861168078  Z M 157.225961538462 360.536861168078  C 157.225961538462 364.402854416894  160.359968289646 367.536861168078  164.225961538462 367.536861168078  C 164.225961538462 367.536861168078  352 367.536861168078  352 367.536861168078  C 355.865993248815 367.536861168078  359 364.402854416894  359 360.536861168078  C 359 360.536861168078  359 324.072463768116  359 324.072463768116  C 359 320.2064705193  355.865993248815 317.072463768116  352 317.072463768116  C 352 317.072463768116  288.569837997519 317.072463768116  288.569837997519 317.072463768116  C 288.569837997519 317.072463768116  285.223570927066 280.393981912259  285.223570927066 280.393981912259  C 285.223570927066 280.393981912259  245.737619495723 317.072463768116  245.737619495723 317.072463768116  C 245.737619495723 317.072463768116  164.225961538462 317.072463768116  164.225961538462 317.072463768116  C 160.359968289646 317.072463768116  157.225961538462 320.2064705193  157.225961538462 324.072463768116  C 157.225961538462 324.072463768116  157.225961538462 360.536861168078  157.225961538462 360.536861168078  Z " fill-rule="nonzero" fill="#d7d7d7" stroke="none" />
  </g>
</svg>