<?xml version="1.0" encoding="utf-8"?>
<svg version="1.1" xmlns:xlink="http://www.w3.org/1999/xlink" width="157px" height="54px" xmlns="http://www.w3.org/2000/svg">
  <g transform="matrix(1 0 0 1 -510 -367 )">
    <path d="M 510.5 395.27950310559  C 510.5 395.27950310559  510.5 372  510.5 372  C 510.5 369.514718625761  512.514718625761 367.5  515 367.5  C 515 367.5  662 367.5  662 367.5  C 664.485281374239 367.5  666.5 369.514718625761  666.5 372  C 666.5 372  666.5 395.27950310559  666.5 395.27950310559  C 666.5 397.764784479829  664.485281374239 399.77950310559  662 399.77950310559  C 662 399.77950310559  599.557160834977 399.77950310559  599.557160834977 399.77950310559  C 599.557160834977 399.77950310559  567.13197242039 419.322779131337  567.13197242039 419.322779131337  C 567.13197242039 419.322779131337  580.649995446021 399.77950310559  580.649995446021 399.77950310559  C 580.649995446021 399.77950310559  515 399.77950310559  515 399.77950310559  C 512.514718625761 399.77950310559  510.5 397.764784479829  510.5 395.27950310559  Z " fill-rule="nonzero" fill="#ffffff" stroke="none" />
    <path d="M 510 395.27950310559  C 510 395.27950310559  510 372  510 372  C 510 369.238576250846  512.238576250846 367  515 367  C 515 367  662 367  662 367  C 664.761423749154 367  667 369.238576250846  667 372  C 667 372  667 395.27950310559  667 395.27950310559  C 667 398.040926854744  664.761423749154 400.27950310559  662 400.27950310559  C 662 400.27950310559  599.696190476191 400.27950310559  599.696190476191 400.27950310559  C 599.696190476191 400.27950310559  565.396825396825 420.95238095238  565.396825396825 420.95238095238  C 565.396825396825 420.95238095238  579.696190476191 400.27950310559  579.696190476191 400.27950310559  C 579.696190476191 400.27950310559  515 400.27950310559  515 400.27950310559  C 512.238576250846 400.27950310559  510 398.040926854744  510 395.27950310559  Z M 511 395.27950310559  C 511 397.488642104913  512.790861000677 399.27950310559  515 399.27950310559  C 515 399.27950310559  581.603800415852 399.27950310559  581.603800415852 399.27950310559  C 581.603800415852 399.27950310559  568.867119443955 417.693177310294  568.867119443955 417.693177310294  C 568.867119443955 417.693177310294  599.418131193764 399.27950310559  599.418131193764 399.27950310559  C 599.418131193764 399.27950310559  662 399.27950310559  662 399.27950310559  C 664.209138999323 399.27950310559  666 397.488642104913  666 395.27950310559  C 666 395.27950310559  666 372  666 372  C 666 369.790861000677  664.209138999323 368  662 368  C 662 368  515 368  515 368  C 512.790861000677 368  511 369.790861000677  511 372  C 511 372  511 395.27950310559  511 395.27950310559  Z " fill-rule="nonzero" fill="#d7d7d7" stroke="none" />
  </g>
</svg>