<?xml version="1.0" encoding="utf-8"?>
<svg version="1.1" xmlns:xlink="http://www.w3.org/1999/xlink" width="209px" height="91px" xmlns="http://www.w3.org/2000/svg">
  <g transform="matrix(1 0 0 1 -458 -124 )">
    <path d="M 458.5 173.77251552795  C 458.5 173.77251552795  458.5 129  458.5 129  C 458.5 126.514718625761  460.514718625761 124.5  463 124.5  C 463 124.5  662 124.5  662 124.5  C 664.485281374239 124.5  666.5 126.514718625761  666.5 129  C 666.5 129  666.5 173.77251552795  666.5 173.77251552795  C 666.5 176.257796902189  664.485281374239 178.27251552795  662 178.27251552795  C 662 178.27251552795  576.290549782442 178.27251552795  576.290549782442 178.27251552795  C 576.290549782442 178.27251552795  567.288693976995 213.30535913171  567.288693976995 213.30535913171  C 567.288693976995 213.30535913171  551.832350065388 178.27251552795  551.832350065388 178.27251552795  C 551.832350065388 178.27251552795  463 178.27251552795  463 178.27251552795  C 460.514718625761 178.27251552795  458.5 176.257796902189  458.5 173.77251552795  Z " fill-rule="nonzero" fill="#ffffff" stroke="none" />
    <path d="M 458 173.77251552795  C 458 173.77251552795  458 129  458 129  C 458 126.238576250846  460.238576250846 124  463 124  C 463 124  662 124  662 124  C 664.761423749154 124  667 126.238576250846  667 129  C 667 129  667 173.77251552795  667 173.77251552795  C 667 176.533939277104  664.761423749154 178.77251552795  662 178.77251552795  C 662 178.77251552795  576.678315018315 178.77251552795  576.678315018315 178.77251552795  C 576.678315018315 178.77251552795  567.413793103449 214.827586206897  567.413793103449 214.827586206897  C 567.413793103449 214.827586206897  551.506446886447 178.77251552795  551.506446886447 178.77251552795  C 551.506446886447 178.77251552795  463 178.77251552795  463 178.77251552795  C 460.238576250846 178.77251552795  458 176.533939277104  458 173.77251552795  Z M 459 173.77251552795  C 459 175.981654527273  460.790861000677 177.77251552795  463 177.77251552795  C 463 177.77251552795  552.158253244329 177.77251552795  552.158253244329 177.77251552795  C 552.158253244329 177.77251552795  567.16359485054 211.783132056523  567.16359485054 211.783132056523  C 567.16359485054 211.783132056523  575.902784546569 177.77251552795  575.902784546569 177.77251552795  C 575.902784546569 177.77251552795  662 177.77251552795  662 177.77251552795  C 664.209138999323 177.77251552795  666 175.981654527273  666 173.77251552795  C 666 173.77251552795  666 129  666 129  C 666 126.790861000677  664.209138999323 125  662 125  C 662 125  463 125  463 125  C 460.790861000677 125  459 126.790861000677  459 129  C 459 129  459 173.77251552795  459 173.77251552795  Z " fill-rule="nonzero" fill="#d7d7d7" stroke="none" />
  </g>
</svg>